#!OML:ASF E:/inclinewalkrobotboard/Project1/Captureday1/Session1/subject1.ASF
:FULLY-SPECIFIED
:DEGREES
38
root 0 0 0 0.4612387238149527 -3.1614252854064446 1.26406604113389
lowerback 11.50520745523773 0.6299517672156083 -0.5389864610634559
upperback -2.7794821024070413 0.7945851389325723 0.016458090106685974
thorax -9.451606958026392 0.354695961125729 0.202488861368177
lowerneck -9.797612447432442 0.2632435559004178 2.3765223385947194
upperneck 18.552985555628208 1.133474593485278 -5.5065482924703675
head 7.447059766407638 0.2739081181715737 -2.090633030594415
rclavicle 2.1265771689148601E-16 -7.385148274898731E-16
rhumerus 2.5821345451059408 3.438408610214001 -59.56495549379332
rradius 56.19656580158161
rwrist 17.540197569796455
rhand -28.400522447380503 -27.545605628458862
rfingers 7.125019999999986
rthumb -1.7681209884215425 -57.78459698627633
lclavicle -8.356538715789565E-16 -1.7507253832375916E-16
lhumerus 3.078173014812286 -9.600923977741967 59.03322400162352
lradius 55.77732777281766
lwrist -11.274349910733017
lhand -38.86272352468488 -35.99834383040523
lfingers 7.125019999999983
lthumb -11.803771952892081 -6.306408574618608
rfemur -25.429992497663626 1.753999305782942 19.953829830639084
rtibia 47.89103812967327
rfoot -7.262794239394297 -9.876213333437782
rtoes -1.443377546347042
lfemur -14.99832045541841 -0.2576921966090061 -17.100427987484547
ltibia 42.91974211010244
lfoot -5.897047415644154 -4.873541994042738
ltoes -6.289074730180568
39
root 0 0 0 0.46153110960142696 -3.161145901562727 1.265023126018322
lowerback 11.5053483875304 0.6297427525449647 -0.5397289517301945
upperback -2.7798353449815205 0.7942190117945549 0.01626948068958156
thorax -9.452092038452014 0.3545279669407211 0.20279021346965265
lowerneck -9.796814330881915 0.2636235485171796 2.376954861631319
upperneck 18.552998592477476 1.1340645535608767 -5.507255504744877
head 7.446923970471137 0.27416490001455385 -2.0908602782105867
rclavicle 2.1279780232787324E-16 -7.382212279069907E-16
rhumerus 2.584000361704284 3.4397896451730396 -59.56400378706835
rradius 56.19825644829013
rwrist 17.540832464261435
rhand -28.401118320242084 -27.548307687242644
rfingers 7.125019999999986
rthumb -1.7686291413218385 -57.78731825268144
lclavicle -8.355030863387181E-16 -1.7453245053266598E-16
lhumerus 3.083071764704698 -9.602387856233301 59.029887710577434
lradius 55.781198420436276
lwrist -11.276546927402299
lhand -38.86437265556876 -36.00620779100371
lfingers 7.125019999999983
lthumb -11.805322942458135 -6.3145632804380725
rfemur -25.465138604387967 1.7464973442372247 19.93693011625857
rtibia 47.912075287887475
rfoot -7.259233602662361 -9.884935036768264
rtoes -1.454948582449444
lfemur -14.997559522342799 -0.26296719818146297 -17.105026486673093
ltibia 42.87902324539927
lfoot -5.915300777568559 -4.857352130415537
ltoes -6.282288275052239
40
root 0 0 0 0.4613630822543602 -3.166040245823256 1.255851030626644
lowerback 11.504546256763065 0.6329858658228127 -0.530977893410978
upperback -2.778996270123341 0.7997518467393341 0.016957852695349773
thorax -9.450551161136573 0.3570117735637159 0.19737628057432488
lowerneck -9.799683476157202 0.26227238014743337 2.3760345619104886
upperneck 18.5517083049186 1.1316084824598795 -5.5047297634065115
head 7.446826380522249 0.2730818264164365 -2.0901644119277707
rclavicle 2.1296729256861668E-16 -7.366548350544462E-16
rhumerus 2.5841083230345916 3.440225198009353 -59.564319787427436
rradius 56.198158521810285
rwrist 17.540293504421108
rhand -28.401124512833345 -27.547932816674045
rfingers 7.125019999999986
rthumb -1.7684160664533106 -57.786462721740435
lclavicle -8.337035157793259E-16 -1.728099484604768E-16
lhumerus 3.085086322636741 -9.603164360596043 59.028797079048566
lradius 55.782547603780586
lwrist -11.277422008031643
lhand -38.86499130851276 -36.00874517192205
lfingers 7.125019999999983
lthumb -11.805799202119474 -6.317792002386469
rfemur -25.318653231863827 1.7874513174733553 20.010423840327284
rtibia 47.72667030998413
rfoot -7.333372795188603 -9.869047443569938
rtoes -1.4527523739710158
lfemur -14.923136071525587 -0.32219767883375094 -17.16936309287925
ltibia 42.45800639062067
lfoot -6.065529371529244 -4.71741150869234
ltoes -6.21642251060804
41
root 0 0 0 0.4608904551559112 -3.167624667028527 1.253503079409181
lowerback 11.504559458888274 0.6339669122732723 -0.5284569991576807
upperback -2.7786365689465957 0.8013538915444506 0.017079729092703833
thorax -9.450129742312399 0.3577245013719558 0.19589972499439345
lowerneck -9.800436359640575 0.26160375624683274 2.3756648831007414
upperneck 18.55241050771523 1.1307638617391826 -5.504145990975469
head 7.447202780397815 0.27267137306731337 -2.0900336267761865
rclavicle 2.1264837013284675E-16 -7.379790464073673E-16
rhumerus 2.5837259124570053 3.43992479345102 -59.564541763496905
rradius 56.197997668050945
rwrist 17.540311377965004
rhand -28.401034502158954 -27.54758464877356
rfingers 7.125019999999986
rthumb -1.768430434878689 -57.786466702376295
lclavicle -8.352076427144341E-16 -1.7449337760338055E-16
lhumerus 3.079073260619335 -9.601427137102526 59.03273970904841
lradius 55.77825680615932
lwrist -11.27449401531891
lhand -38.86306959628644 -35.99915815259165
lfingers 7.125019999999983
lthumb -11.804054427100926 -6.3071428251176584
rfemur -25.296486423634274 1.792344277176531 20.020939976176045
rtibia 47.71194229302795
rfoot -7.336996332601435 -9.863830967777854
rtoes -1.4466660301543317
lfemur -14.882054635838402 -0.3279717295861817 -17.188924756279512
ltibia 42.413812400844925
lfoot -6.082796293331626 -4.712296438073944
ltoes -6.214956625264634
42
root 0 0 0 0.4607137402541732 -3.1667463439580916 1.2546886044229917
lowerback 11.504546361251869 0.6334298955168218 -0.5298101410205301
upperback -2.778498318172873 0.8004534284872263 0.017097142065372717
thorax -9.449989825057187 0.3573202134863733 0.19683787294805188
lowerneck -9.80057236364523 0.2615825773767968 2.375451012586657
upperneck 18.55248482846574 1.1307745594464218 -5.503991667321523
head 7.447277326400632 0.27268389261962267 -2.0899495348053088
rclavicle 2.127503723381709E-16 -7.379156014361474E-16
rhumerus 2.5829366887760443 3.439310452133846 -59.5648712367999
rradius 56.19731916579333
rwrist 17.540063278202346
rhand -28.40078358298162 -27.546477886623965
rfingers 7.125019999999986
rthumb -1.7682239818033327 -57.785349530034814
lclavicle -8.351872950188095E-16 -1.747006597726934E-16
lhumerus 3.07520751926884 -9.600282829753978 59.03541085349123
lradius 55.77515142054615
lwrist -11.272747967905255
lhand -38.861760924513945 -35.99289200000268
lfingers 7.125019999999983
lthumb -11.80281277269776 -6.300654689289772
rfemur -25.2996674133597 1.790682603460103 20.0190952828681
rtibia 47.72456497213312
rfoot -7.329471727090262 -9.862178480619129
rtoes -1.4422283275439136
lfemur -14.85281821635115 -0.3309617803828103 -17.201828086522383
ltibia 42.39229269807766
lfoot -6.090030808052293 -4.712462651941408
ltoes -6.21537887376824
